<svg width="1140.21" height="776" xmlns="http://www.w3.org/2000/svg">
 <defs>
  <linearGradient y2="-0.00008" x2="0.5" y1="1.00005" x1="0.5" id="1dd6dc0b-ad1e-451b-b90e-ab2e972949f2">
   <stop stop-opacity="0.25" stop-color="gray" offset="0"/>
   <stop stop-opacity="0.12" stop-color="gray" offset="0.54"/>
   <stop stop-opacity="0.1" stop-color="gray" offset="1"/>
  </linearGradient>
 </defs>
 <title>podcast</title>
 <g>
  <title>background</title>
  <rect fill="none" id="canvas_background" height="602" width="802" y="-1" x="-1"/>
 </g>
 <g>
  <title>Layer 1</title>
  <path id="svg_1" opacity="0.1" fill="#6c63ff" d="m468.6,764.57c77.07,-42.65 165.11,-56.28 251.15,-38c121.92,25.92 275.15,15.76 304.83,-184.21c50.69,-341.52 -161.73,-431.66 -161.73,-431.66s-141.26,-11.83 -224.79,-56.87c-118.65,-64 -254.27,-72.15 -373.52,-18c-76.26,34.6 -139.06,82.78 -149.79,148.93c-30,185 19.27,286.93 -72.9,347.32s-13.4,226.19 57.26,220.45s230.33,-68.71 292.55,4.23c22.1,25.87 50.06,22.69 76.94,7.81z"/>
  <rect id="svg_2" opacity="0.1" fill="#6c63ff" height="22" width="318" y="150.21" x="516.27"/>
  <rect id="svg_3" opacity="0.1" fill="#6c63ff" height="22" width="318" y="245.21" x="516.27"/>
  <rect id="svg_4" opacity="0.1" fill="#6c63ff" height="22" width="318" y="344.21" x="516.27"/>
  <rect id="svg_5" opacity="0.1" fill="#6c63ff" height="57" width="20" y="93.21" x="544.27"/>
  <rect id="svg_6" opacity="0.1" fill="#6c63ff" height="4" width="20" y="102.21" x="544.27"/>
  <rect id="svg_7" opacity="0.1" fill="#6c63ff" height="4" width="20" y="133.21" x="544.27"/>
  <rect id="svg_8" opacity="0.1" fill="#6c63ff" height="57" width="20" y="93.21" x="574.27"/>
  <rect id="svg_9" opacity="0.1" fill="#6c63ff" height="4" width="20" y="102.21" x="574.27"/>
  <rect id="svg_10" opacity="0.1" fill="#6c63ff" height="4" width="20" y="133.21" x="574.27"/>
  <rect id="svg_11" opacity="0.1" fill="#6c63ff" height="57" width="20" y="93.21" x="604.27"/>
  <rect id="svg_12" opacity="0.1" fill="#6c63ff" height="4" width="20" y="102.21" x="604.27"/>
  <rect id="svg_13" opacity="0.1" fill="#6c63ff" height="4" width="20" y="133.21" x="604.27"/>
  <rect id="svg_14" opacity="0.1" fill="#6c63ff" height="57" width="20" y="93.21" x="634.27"/>
  <rect id="svg_15" opacity="0.1" fill="#6c63ff" height="4" width="20" y="102.21" x="634.27"/>
  <rect id="svg_16" opacity="0.1" fill="#6c63ff" height="4" width="20" y="133.21" x="634.27"/>
  <rect id="svg_17" opacity="0.1" fill="#6c63ff" height="57" width="20" y="93.21" x="664.27"/>
  <rect id="svg_18" opacity="0.1" fill="#6c63ff" height="4" width="20" y="102.21" x="664.27"/>
  <rect id="svg_19" opacity="0.1" fill="#6c63ff" height="4" width="20" y="133.21" x="664.27"/>
  <rect id="svg_20" opacity="0.1" fill="#6c63ff" height="57" width="20" y="93.21" x="694.27"/>
  <rect id="svg_21" opacity="0.1" fill="#6c63ff" height="4" width="20" y="102.21" x="694.27"/>
  <rect id="svg_22" opacity="0.1" fill="#6c63ff" height="4" width="20" y="133.21" x="694.27"/>
  <rect id="svg_23" opacity="0.1" fill="#6c63ff" height="57" width="20" y="93.21" x="724.27"/>
  <rect id="svg_24" opacity="0.1" fill="#6c63ff" height="4" width="20" y="102.21" x="724.27"/>
  <rect id="svg_25" opacity="0.1" fill="#6c63ff" height="4" width="20" y="133.21" x="724.27"/>
  <rect id="svg_26" opacity="0.1" fill="#6c63ff" transform="rotate(-26.6299991607666 648.239990234375,699.1500244140625)" height="57" width="20" y="670.65" x="638.24"/>
  <rect id="svg_27" opacity="0.1" fill="#6c63ff" transform="rotate(-26.6299991607666 646.5800170898438,678.3399658203125)" height="4" width="20" y="676.33999" x="636.58"/>
  <rect id="svg_28" opacity="0.1" fill="#6c63ff" transform="rotate(-26.6299991607666 649.52001953125,715.2200317382812)" height="4" width="20" y="713.22" x="639.52"/>
  <rect id="svg_29" opacity="0.1" fill="#6c63ff" height="57" width="20" y="189.21" x="544.27"/>
  <rect id="svg_30" opacity="0.1" fill="#6c63ff" height="4" width="20" y="198.21" x="544.27"/>
  <rect id="svg_31" opacity="0.1" fill="#6c63ff" height="4" width="20" y="229.21" x="544.27"/>
  <rect id="svg_32" opacity="0.1" fill="#6c63ff" height="57" width="20" y="189.21" x="574.27"/>
  <rect id="svg_33" opacity="0.1" fill="#6c63ff" height="4" width="20" y="198.21" x="574.27"/>
  <rect id="svg_34" opacity="0.1" fill="#6c63ff" height="4" width="20" y="229.21" x="574.27"/>
  <rect id="svg_35" opacity="0.1" fill="#6c63ff" height="57" width="20" y="189.21" x="604.27"/>
  <rect id="svg_36" opacity="0.1" fill="#6c63ff" height="4" width="20" y="198.21" x="604.27"/>
  <rect id="svg_37" opacity="0.1" fill="#6c63ff" height="4" width="20" y="229.21" x="604.27"/>
  <rect id="svg_38" opacity="0.1" fill="#6c63ff" height="57" width="20" y="189.21" x="729.27"/>
  <rect id="svg_39" opacity="0.1" fill="#6c63ff" height="4" width="20" y="198.21" x="729.27"/>
  <rect id="svg_40" opacity="0.1" fill="#6c63ff" height="4" width="20" y="229.21" x="729.27"/>
  <rect id="svg_41" opacity="0.1" fill="#6c63ff" height="57" width="20" y="189.21" x="759.27"/>
  <rect id="svg_42" opacity="0.1" fill="#6c63ff" height="4" width="20" y="198.21" x="759.27"/>
  <rect id="svg_43" opacity="0.1" fill="#6c63ff" height="4" width="20" y="229.21" x="759.27"/>
  <rect id="svg_44" opacity="0.1" fill="#6c63ff" height="57" width="20" y="189.21" x="789.27"/>
  <rect id="svg_45" opacity="0.1" fill="#6c63ff" height="4" width="20" y="198.21" x="789.27"/>
  <rect id="svg_46" opacity="0.1" fill="#6c63ff" height="4" width="20" y="229.21" x="789.27"/>
  <rect id="svg_47" opacity="0.1" fill="#6c63ff" height="57" width="20" y="287.21" x="544.27"/>
  <rect id="svg_48" opacity="0.1" fill="#6c63ff" height="4" width="20" y="296.21" x="544.27"/>
  <rect id="svg_49" opacity="0.1" fill="#6c63ff" height="4" width="20" y="327.21" x="544.27"/>
  <rect id="svg_50" opacity="0.1" fill="#6c63ff" height="57" width="20" y="287.21" x="574.27"/>
  <rect id="svg_51" opacity="0.1" fill="#6c63ff" height="4" width="20" y="296.21" x="574.27"/>
  <rect id="svg_52" opacity="0.1" fill="#6c63ff" height="4" width="20" y="327.21" x="574.27"/>
  <rect id="svg_53" opacity="0.1" fill="#6c63ff" height="57" width="20" y="287.21" x="604.27"/>
  <rect id="svg_54" opacity="0.1" fill="#6c63ff" height="4" width="20" y="296.21" x="604.27"/>
  <rect id="svg_55" opacity="0.1" fill="#6c63ff" height="4" width="20" y="327.21" x="604.27"/>
  <rect id="svg_56" opacity="0.1" fill="#6c63ff" height="57" width="20" y="287.21" x="634.27"/>
  <rect id="svg_57" opacity="0.1" fill="#6c63ff" height="4" width="20" y="296.21" x="634.27"/>
  <rect id="svg_58" opacity="0.1" fill="#6c63ff" height="4" width="20" y="327.21" x="634.27"/>
  <rect id="svg_59" opacity="0.1" fill="#6c63ff" height="57" width="20" y="287.21" x="664.27"/>
  <rect id="svg_60" opacity="0.1" fill="#6c63ff" height="4" width="20" y="296.21" x="664.27"/>
  <rect id="svg_61" opacity="0.1" fill="#6c63ff" height="4" width="20" y="327.21" x="664.27"/>
  <rect id="svg_62" opacity="0.1" fill="#6c63ff" height="57" width="20" y="287.21" x="694.27"/>
  <rect id="svg_63" opacity="0.1" fill="#6c63ff" height="4" width="20" y="296.21" x="694.27"/>
  <rect id="svg_64" opacity="0.1" fill="#6c63ff" height="4" width="20" y="327.21" x="694.27"/>
  <path id="svg_65" opacity="0.1" fill="#6c63ff" d="m774.27,98.29l0,51.92l-20,0l0,-55.73q10.04,1.77 20,3.81z"/>
  <rect id="svg_66" opacity="0.1" fill="#6c63ff" height="4" width="20" y="102.21" x="754.27"/>
  <rect id="svg_67" opacity="0.1" fill="#6c63ff" height="4" width="20" y="133.21" x="754.27"/>
  <path id="svg_68" opacity="0.1" fill="#6c63ff" d="m804.27,105.23l0,45l-20,0l0,-49.8c2.6,0.57 5.19,1.17 7.78,1.78q6.14,1.44 12.22,3.02z"/>
  <path id="svg_69" opacity="0.1" fill="#6c63ff" d="m804.27,105.23l0,1l-20,0l0,-4l7.78,0q6.14,1.42 12.22,3z"/>
  <rect id="svg_70" opacity="0.1" fill="#6c63ff" height="4" width="20" y="133.21" x="784.27"/>
  <g id="svg_71" opacity="0.1">
   <path id="svg_72" fill="#6c63ff" d="m664.66,225.49s-6.06,-2.06 -9,3.29a9.75,9.75 0 0 0 0.13,9.38c1.92,3.46 5.87,8 13.35,7.56c6.35,-0.34 8.46,-5.18 9,-9.69a10,10 0 0 0 -13.22,-10.66l-0.26,0.12z"/>
   <path id="svg_73" opacity="0.1" fill="#6c63ff" d="m657.11,238.65a9.75,9.75 0 0 1 -0.13,-9.38c2.92,-5.34 9,-3.29 9,-3.29l0.31,-0.11a9.87,9.87 0 0 1 7.13,0.16a9.87,9.87 0 0 0 -8.41,-0.8l-0.31,0.11s-6.06,-2.06 -9,3.29a9.75,9.75 0 0 0 0.13,9.38a14.57,14.57 0 0 0 6.86,6.49a15,15 0 0 1 -5.58,-5.85z"/>
   <path id="svg_74" opacity="0.2" fill="#6c63ff" d="m661.53,228.06s2.25,1.77 7.71,0"/>
   <path id="svg_75" fill="#6c63ff" d="m661.04,215.21s3.85,10.44 3.53,13.17l3.05,-0.32s-5.14,-9.15 -3.85,-12.85l-2.73,0z"/>
   <path id="svg_76" opacity="0.2" fill="#6c63ff" d="m661.04,215.21s3.85,10.44 3.53,13.17l3.05,-0.32s-5.14,-9.15 -3.85,-12.85l-2.73,0z"/>
   <path id="svg_77" fill="#6c63ff" d="m676.78,216.09s-6.07,-3.1 -8.78,-0.54s-3.13,9.11 -3.13,9.11s9.89,1.34 11.91,-8.57z"/>
   <path id="svg_78" opacity="0.1" fill="#6c63ff" d="m676.78,216.09s-6.07,-3.1 -8.78,-0.54s-3.13,9.11 -3.13,9.11s9.89,1.34 11.91,-8.57z"/>
   <path id="svg_79" fill="#6c63ff" d="m664.86,224.66s1.59,-7.6 11.91,-8.58"/>
  </g>
  <g id="svg_80" opacity="0.1">
   <path id="svg_81" fill="#6c63ff" d="m792.66,324.49s-6.06,-2.06 -9,3.29a9.75,9.75 0 0 0 0.13,9.38c1.92,3.46 5.87,8 13.35,7.56c6.35,-0.34 8.46,-5.18 9,-9.69a10,10 0 0 0 -13.22,-10.66l-0.26,0.12z"/>
   <path id="svg_82" opacity="0.1" fill="#6c63ff" d="m785.11,337.65a9.75,9.75 0 0 1 -0.13,-9.38c2.92,-5.34 9,-3.29 9,-3.29l0.31,-0.11a9.87,9.87 0 0 1 7.13,0.16a9.87,9.87 0 0 0 -8.41,-0.8l-0.31,0.11s-6.06,-2.06 -9,3.29a9.75,9.75 0 0 0 0.13,9.38a14.57,14.57 0 0 0 6.86,6.49a15,15 0 0 1 -5.58,-5.85z"/>
   <path id="svg_83" opacity="0.2" fill="#6c63ff" d="m789.53,327.06s2.25,1.77 7.71,0"/>
   <path id="svg_84" fill="#6c63ff" d="m789.04,314.21s3.85,10.44 3.53,13.17l3.05,-0.32s-5.14,-9.15 -3.85,-12.85l-2.73,0z"/>
   <path id="svg_85" opacity="0.2" fill="#6c63ff" d="m789.04,314.21s3.85,10.44 3.53,13.17l3.05,-0.32s-5.14,-9.15 -3.85,-12.85l-2.73,0z"/>
   <path id="svg_86" fill="#6c63ff" d="m804.78,315.09s-6.07,-3.1 -8.78,-0.54s-3.13,9.11 -3.13,9.11s9.89,1.34 11.91,-8.57z"/>
   <path id="svg_87" opacity="0.1" fill="#6c63ff" d="m804.78,315.09s-6.07,-3.1 -8.78,-0.54s-3.13,9.11 -3.13,9.11s9.89,1.34 11.91,-8.57z"/>
   <path id="svg_88" fill="#6c63ff" d="m792.86,323.66s1.59,-7.6 11.91,-8.58"/>
  </g>
  <ellipse id="svg_89" opacity="0.1" ry="19.2" rx="54" cy="610.84" cx="995.02"/>
  <path id="svg_90" stroke-width="2" stroke-miterlimit="10" stroke="#535461" fill="none" d="m995.06,611s30.81,-104.59 -5.78,-181.58c-15.35,-32.31 -20.45,-68.58 -13.36,-103.64a277.84,277.84 0 0 1 14.67,-48.65"/>
  <path id="svg_91" fill="#6c63ff" d="m967.83,228.47c0,12.82 23.21,50 23.21,50s23.21,-37.17 23.21,-50a23.21,23.21 0 1 0 -46.42,0z"/>
  <path id="svg_92" fill="#6c63ff" d="m929.46,299.47c7,10.76 46.65,29.35 46.65,29.35s-0.72,-43.82 -7.69,-54.58a23.21,23.21 0 1 0 -39,25.23l0.04,0z"/>
  <path id="svg_93" fill="#6c63ff" d="m931.11,420.81c11.45,5.77 55.09,1.78 55.09,1.78s-22.74,-37.46 -34.19,-43.23a23.21,23.21 0 1 0 -20.9,41.45z"/>
  <path id="svg_94" fill="#6c63ff" d="m953.11,512.33c10.31,7.62 54,11.07 54,11.07s-16.08,-40.77 -26.39,-48.39a23.21,23.21 0 1 0 -27.61,37.32z"/>
  <path id="svg_95" fill="#6c63ff" d="m1024.85,331.3c-9.19,8.93 -52,18.18 -52,18.18s10.49,-42.55 19.68,-51.48a23.21,23.21 0 1 1 32.34,33.3l-0.02,0z"/>
  <path id="svg_96" fill="#6c63ff" d="m1049.11,438.66c-11.45,5.77 -55.09,1.78 -55.09,1.78s22.74,-37.46 34.19,-43.23a23.21,23.21 0 1 1 20.9,41.45z"/>
  <path id="svg_97" fill="#6c63ff" d="m1058.45,546.25c-10.31,7.62 -54,11.07 -54,11.07s16.08,-40.77 26.39,-48.39a23.21,23.21 0 1 1 27.6,37.32l0.01,0z"/>
  <ellipse id="svg_98" opacity="0.1" ry="19.2" rx="54" cy="555.64" cx="860.62"/>
  <path id="svg_99" stroke-width="2" stroke-miterlimit="10" stroke="#535461" fill="none" d="m858.43,558.37s14.43,-49 -2.71,-85.07a77.4,77.4 0 0 1 -6.26,-48.56a130.18,130.18 0 0 1 6.88,-22.79"/>
  <path id="svg_100" fill="#6c63ff" d="m845.67,379.15c0,6 10.87,23.42 10.87,23.42s10.87,-17.42 10.87,-23.42a10.87,10.87 0 0 0 -21.75,0l0.01,0z"/>
  <path id="svg_101" fill="#6c63ff" d="m827.7,412.41c3.26,5 21.86,13.75 21.86,13.75s-0.34,-20.53 -3.6,-25.57a10.87,10.87 0 1 0 -18.26,11.82z"/>
  <path id="svg_102" fill="#6c63ff" d="m828.48,469.26c5.36,2.7 25.81,0.84 25.81,0.84s-10.65,-17.55 -16,-20.26a10.87,10.87 0 1 0 -9.79,19.42l-0.02,0z"/>
  <path id="svg_103" fill="#6c63ff" d="m838.76,512.14c4.83,3.57 25.3,5.19 25.3,5.19s-7.54,-19.1 -12.36,-22.67a10.87,10.87 0 1 0 -12.93,17.49l-0.01,-0.01z"/>
  <path id="svg_104" fill="#6c63ff" d="m872.39,427.33c-4.31,4.18 -24.38,8.52 -24.38,8.52s4.92,-19.94 9.22,-24.12a10.87,10.87 0 0 1 15.15,15.6l0.01,0z"/>
  <path id="svg_105" fill="#6c63ff" d="m883.78,477.63c-5.36,2.7 -25.81,0.84 -25.81,0.84s10.65,-17.55 16,-20.26a10.87,10.87 0 0 1 9.79,19.42l0.02,0z"/>
  <path id="svg_106" fill="#6c63ff" d="m888.11,528c-4.83,3.57 -25.3,5.19 -25.3,5.19s7.54,-19.1 12.36,-22.67a10.87,10.87 0 1 1 12.94,17.48z"/>
  <path id="svg_107" fill="url(#1dd6dc0b-ad1e-451b-b90e-ab2e972949f2)" d="m1168.22,717.85l-309.64,-164.25l-64.93,0l16.8,-139.84a23.18,23.18 0 0 0 -20.71,-25.83l-1.74,0.07l-0.17,0l-236.21,3.59a25.49,25.49 0 0 0 -26.62,19.63l-11,80.36l-1.59,-2.43l-0.77,-1.17c5.81,-3.78 -5.65,-26.25 -15.36,-43l-0.88,-1.52c6.16,-2.57 13,-5 13,-5l-15.15,-9.46s-13.94,-20.18 -28.78,-36.55c10,-62.62 -11.12,-135 -11.37,-136l-0.56,0.15a29.9,29.9 0 0 0 4.46,-15.8l0,0a30,30 0 0 0 -10.12,-22.48c-0.59,-5.36 -1.44,-10.88 -2.66,-16.69l0,0c-0.22,-1 -0.45,-2.11 -0.7,-3.17c-1.14,-5 -2.29,-10 -3.8,-14.9a75,75 0 0 0 -3.89,-10.21c-7.89,-16.67 -24.12,-28.59 -41.9,-32.79c-9.15,-2.16 -18.53,1.19 -27.07,-0.41c-4.3,-0.79 -8.15,-4.92 -12.34,-6.59c-5.31,-2.12 -11.06,-3.11 -16.68,-4c-7,-1.17 -14.27,-2.33 -21.24,-0.81c-11.5,2.5 -20.27,11.82 -26.72,21.66s-11.46,20.74 -19.43,29.4c-5.33,5.8 -11.89,10.46 -16.64,16.74c-7,9.24 -9.43,21 -11.68,32.42c-2.78,14.05 -5.56,28.3 -5.5,42.57c0,3.31 0.05,6.63 0.34,9.95c0.73,8.52 2.67,16.92 3.13,25.45c0,0.92 0.07,1.84 0.09,2.76c-0.1,15.61 -4.71,31 -9.29,46c-1.46,4.77 -2.94,9.58 -4.67,14.28c-9.2,0.78 -18,2.62 -24.71,6.24c-24.52,13.12 -43.39,42.38 -43.39,42.38l-35.87,33s14.16,6.61 20.77,17.94a8,8 0 0 0 0.81,1.13l-0.52,1.2l-21.06,48.64s13.22,9.44 33,7.55a24.56,24.56 0 0 1 9.6,0.7c0,0.6 -0.06,1.21 -0.08,1.85c-1.21,27.83 -1.85,88.81 12.55,130l-32.54,38l-65,19.25l-2.83,50l1093.15,0l-1.89,-50.01zm-937.49,-186.45a39.82,39.82 0 0 1 8.11,2.58l0,34.76c-1.72,-12.28 -4.11,-24.86 -7.44,-35.32c-0.21,-0.68 -0.4,-1.35 -0.67,-2.02zm187.69,66.89q0,-0.18 0,-0.36a17.74,17.74 0 0 1 0.49,-3.6a10.18,10.18 0 0 1 2.61,-4.86c2.41,-2.41 4.9,-5 7.39,-7.81a36.39,36.39 0 0 0 6.54,10.81c3.2,3.57 10.35,6.78 20.39,9.68a367.91,367.91 0 0 0 -37.42,-3.86zm81.61,-4.8l-32.68,9.67c-15.45,-3.46 -26.44,-7.42 -30.51,-12a35,35 0 0 1 -6.52,-11.16c11.66,-13.52 23,-31.71 25.6,-56.55c0.07,-0.65 0.12,-1.32 0.18,-2a65.1,65.1 0 0 0 10,-7l0.59,1.38a175.9,175.9 0 0 0 36.65,53.58l-3.31,24.08zm-48.44,-335.43c2.57,9.27 20,74.9 11.26,132.61c-5.44,-5.86 -10.93,-11.1 -15.85,-14.55a30.78,30.78 0 0 0 -3.65,-2.17c-1.09,-10.58 -1.59,-21.55 -1.67,-32.42c0.1,-13.46 0.9,-26.81 2,-39.51c1.19,-13.46 2.59,-26.3 3.46,-38.93a30.21,30.21 0 0 0 4.45,-5.03z"/>
  <path id="svg_108" fill="#dfe6f5" transform="rotate(-180 1301.095703125,672.26171875)" d="m1309.10999,642.75999l8.53,0a0,0 0 0 1 0,0l0,59a0,0 0 0 1 0,0l-8.53,0a24.56,24.56 0 0 1 -24.56,-24.56l0,-9.82a24.56,24.56 0 0 1 24.56,-24.62z"/>
  <rect id="svg_109" fill="#535461" transform="rotate(-180 1251.4599609375,672.2350158691406)" ry="6.03" rx="6.03" height="58.95" width="14.48" y="642.75999" x="1244.22003"/>
  <rect id="svg_113" fill="#865a61" height="154.65" width="149.09" y="184.45" x="260.72"/>
  <rect id="svg_114" opacity="0.1" height="154.65" width="149.09" y="163.15" x="260.72"/>
  <path id="svg_115" fill="#fdc2cc" d="m404.72,312.71l-9,65.4l-4.24,30.74l-1.56,11.29l-13.07,25.48l-24,46.76l-46.3,5.56l-81.44,-114.85s-42.64,-81.49 22.19,-74.09c36.35,4.16 45,-28.38 45.65,-57.77a218.52,218.52 0 0 0 -4,-44.1l64.82,31.49q-2.26,10.53 -3.4,19.35c-3.16,24.06 -0.54,39.06 4.94,48.15c14.59,24.21 49.41,6.59 49.41,6.59z"/>
  <path id="svg_116" opacity="0.1" d="m353.79,238.63q-2.26,10.53 -3.4,19.35a75.41,75.41 0 0 1 -20.68,2.88a74.64,74.64 0 0 1 -36.76,-9.61a218.52,218.52 0 0 0 -4,-44.1l64.84,31.48z"/>
  <circle id="svg_117" fill="#fdc2cc" r="75.01" cy="183.99" cx="329.71"/>
  <path id="svg_118" fill="#ec7580" d="m429.73,610.9l-308.38,24.1l50,-58.34c53.65,-32.78 53.19,-77.84 46.06,-105.79a108.76,108.76 0 0 0 -9.95,-25.71l106.59,0.5l0.9,0l8.76,19.91l0.4,0.9l6.52,14.81l22.22,-39.82l7.73,-12.46l4.32,-7s63.9,-14.82 64.82,23.15a101.5,101.5 0 0 1 -0.51,13.06c-3.18,30.56 -19.9,50.88 -33.75,64.73c-15.74,15.73 34.27,87.96 34.27,87.96z"/>
  <path id="svg_120" fill="#fdc2cc" d="m633.46,577.56c-1.85,22.22 -55.56,-7.41 -55.56,-7.41s-16.67,-5.56 -73.16,-41.67a172.48,172.48 0 0 1 -65,-75.89a109,109 0 0 1 -5.41,-14.86l38.92,-28.73l11.35,17.35l37.73,57.65l55.56,37s57.42,34.34 55.57,56.56z"/>
  <polygon id="svg_121" fill="#cbcdda" points="1127.96 650.72 60.23 650.72 167.12 619.09 434.34 540.01 604.74 489.58 824.22 489.58 1127.96 650.72"/>
  <polygon id="svg_122" fill="#cbcdda" points="60.23 650.72 57.45 699.8 1129.81 699.8 1127.96 650.72 60.23 650.72"/>
  <polygon id="svg_123" opacity="0.1" points="60.23 650.72 57.45 699.8 1129.81 699.8 1127.96 650.72 60.23 650.72"/>
  <path id="svg_124" fill="#535461" d="m340.16,581.31l225.69,-23.19l2.78,44.45l-103.16,10.23a67.38,67.38 0 0 1 -21.22,-1.65l-104.28,-26.94a1.48,1.48 0 0 1 0.19,-2.9z"/>
  <path id="svg_125" opacity="0.2" d="m340.16,581.31l225.69,-23.19l2.78,44.45l-103.16,10.23a67.38,67.38 0 0 1 -21.22,-1.65l-104.28,-26.94a1.48,1.48 0 0 1 0.19,-2.9z"/>
  <path id="svg_126" fill="#535461" d="m340.16,580.38l227.55,-23.19l2.78,44.45l-103.17,8.36a67.38,67.38 0 0 1 -21.21,-1.62l-106.14,-25.09a1.48,1.48 0 0 1 0.19,-2.91z"/>
  <path id="svg_127" opacity="0.3" fill="#fff" d="m394.11,582l120.32,-12.26l1.47,23.5l-54.55,4.43a35.63,35.63 0 0 1 -11.22,-0.87l-56.12,-13.27a0.78,0.78 0 0 1 0.1,-1.53z"/>
  <path id="svg_128" opacity="0.1" d="m484.6,426.37c-0.73,1 -2,1.45 -3.94,1.17c-18.52,-2.78 -39.82,24.08 -39.82,24.08s-0.38,0.36 -1.07,1a109,109 0 0 1 -5.41,-14.86l38.89,-28.76l11.35,17.37z"/>
  <path id="svg_129" opacity="0.1" d="m429.22,460c-8.71,4.85 -20.7,8.33 -30.05,-1c-16.15,-16.15 -44.46,-14 -46.22,-13.9c2.89,-0.4 5.45,-6.34 7.63,-14.3l4.32,-7s63.9,-14.8 64.83,23.2a101.5,101.5 0 0 1 -0.51,13z"/>
  <path id="svg_130" opacity="0.1" d="m395.7,378.11l-5.8,42l-13.07,25.48a79.68,79.68 0 0 0 -24.82,-2.33c9.21,-1.27 15.16,-58.82 15.16,-58.82l0.53,-0.12l28,-6.21z"/>
  <path id="svg_131" fill="#ec7580" d="m480.66,425.69c-18.52,-2.78 -39.82,24.08 -39.82,24.08s-25,24.08 -41.67,7.41c-16.15,-16.15 -44.46,-14 -46.22,-13.9c9.21,-1.28 15.16,-58.83 15.16,-58.83l0.53,-0.12l88.87,-19.76s5.3,8.12 11.28,18.46c10.79,18.63 23.79,44.45 11.87,42.66z"/>
  <path id="svg_132" opacity="0.1" d="m458.43,388.65c0.93,1.85 -14.82,11.11 -22.22,8.33s-25.93,12 -27.78,13.89s-43.52,-2.78 -43.52,-2.78a195.82,195.82 0 0 0 3.73,-23.76l88.87,-19.76s5.3,8.12 11.28,18.46c-5.53,2.27 -10.81,4.71 -10.36,5.62z"/>
  <path id="svg_133" opacity="0.1" d="m404.72,312.71l-9,65.4l-4.24,30.74c-12.42,-0.93 -27.48,-2.6 -27.48,-2.6s15.74,-65.75 -10.19,-100c0,0 0.55,0 1.54,-0.1c14.55,24.18 49.37,6.56 49.37,6.56z"/>
  <path id="svg_134" fill="#ec7580" d="m354.72,306.23s47.23,-3.7 65.75,9.26s45.38,51.86 45.38,51.86l14.82,9.26s-23.15,8.33 -22.22,10.19s-14.82,11.11 -22.22,8.33s-25.93,12 -27.78,13.89s-43.52,-2.78 -43.52,-2.78s15.72,-65.75 -10.21,-100.01z"/>
  <path id="svg_136" fill="#535461" d="m521.7,330.61l233.14,-3.54a22.74,22.74 0 0 1 20.27,25.34l-26.45,220.2a22.74,22.74 0 0 1 -21.21,20l-238.29,14.75a22.74,22.74 0 0 1 -23.86,-26l31.64,-231.42a22.74,22.74 0 0 1 24.76,-19.33z"/>
  <path id="svg_137" opacity="0.2" d="m521.7,330.61l233.14,-3.54a22.74,22.74 0 0 1 20.27,25.34l-26.45,220.2a22.74,22.74 0 0 1 -21.21,20l-238.29,14.75a22.74,22.74 0 0 1 -23.86,-26l31.64,-231.42a22.74,22.74 0 0 1 24.76,-19.33z"/>
  <path id="svg_138" fill="#535461" d="m523.55,330.61l233.14,-3.54a22.74,22.74 0 0 1 20.31,25.34l-26.45,220.2a22.74,22.74 0 0 1 -21.21,20l-238.32,14.75a22.74,22.74 0 0 1 -23.86,-26l31.64,-231.42a22.74,22.74 0 0 1 24.75,-19.33z"/>
  <circle id="svg_139" opacity="0.3" fill="#fff" r="11.11" cy="455.78" cx="637.62"/>
  <path id="svg_140" opacity="0.1" d="m403.9,569.21c-36.25,3.9 -76,1.87 -76,1.87l-40.79,11.11l-114.82,33.34c-5,-6.47 -9,-14.6 -12.31,-23.76l11.38,-13.28c35.81,-21.88 47.51,-49.23 49.22,-73.31c3.06,23.95 3.57,45.52 3.57,45.52l46.3,-4.63l67.27,-16a60.74,60.74 0 0 1 14.14,-1.65c8.76,0 24.35,0.19 41,1.09c-2.22,9.01 3.48,24.49 11.04,39.7z"/>
  <path id="svg_141" opacity="0.1" d="m454.73,557.19c-21.3,25 -130.57,19.45 -130.57,19.45l-40.75,11.11l-114.83,33.33c-0.5,-0.65 -1,-1.31 -1.46,-2l267.23,-79.08c17.06,3.44 27.53,8.8 20.38,17.19z"/>
  <path id="svg_142" fill="#fdc2cc" d="m454.73,555.34c-21.3,25 -130.57,19.45 -130.57,19.45l-40.75,11.1l-114.83,33.34c-27,-35 -26.4,-118.41 -24.93,-152.15c0.4,-9.06 0.85,-14.54 0.85,-14.54s38.89,-24.08 56.49,0c3.14,4.29 5.77,10.29 8,17.25c10.21,32.09 11.46,84.61 11.46,84.61l46.3,-4.63l67.27,-16a60.78,60.78 0 0 1 14.15,-1.65c27.88,0.08 124.84,1.76 106.56,23.22z"/>
  <path id="svg_143" opacity="0.1" d="m208.98,469.8c-5.91,-1.28 -13.08,-1 -22.8,3.12c-19.45,8.33 -34.26,6.48 -34.26,6.48s1.19,-9.45 -8.26,-12.32c0.4,-9.06 0.85,-14.54 0.85,-14.54s38.89,-24.08 56.49,0c3.11,4.29 5.76,10.29 7.98,17.26z"/>
  <path id="svg_144" opacity="0.1" d="m324.11,468.29l0,0c-0.62,0.13 -8.95,1.7 -25,-1.86c-16.67,-3.7 -23.15,3.7 -32.41,7.41s-33.29,5.56 -42.59,1.86c-2.19,-0.88 -4.39,-2 -6.72,-3a108.76,108.76 0 0 0 -9.91,-25.7l106.59,0.5l9.66,19.91l0.38,0.88z"/>
  <path id="svg_145" fill="#ec7580" d="m324.11,466.44s-8.33,1.85 -25,-1.85s-23.15,3.7 -32.41,7.41s-33.34,5.56 -42.6,1.85s-18.52,-11.11 -38,-2.78s-34.26,6.48 -34.26,6.48s1.85,-14.82 -17.59,-13s-32.41,-7.41 -32.41,-7.41l20.66,-47.72l6.2,-14.33l154.94,-10.59l0.74,0l39.73,81.94z"/>
  <path id="svg_146" opacity="0.1" d="m299.11,422c-10.19,-16.67 -63.9,-1.85 -63.9,-1.85s-25.93,7.41 -31.49,-6.48s-45.32,-4.67 -45.32,-4.67s-28.85,10.82 -35.83,0.44l6.2,-14.33l154.87,-10.61l15.47,37.5z"/>
  <path id="svg_147" fill="#ec7580" d="m254.7,312.71s-50.93,-10.19 -75,2.78s-42.59,41.67 -42.59,41.67l-35.2,32.41s13.89,6.48 20.37,17.59s36.12,0 36.12,0s39.82,-9.26 45.38,4.63s31.49,6.48 31.49,6.48s53.71,-14.82 63.9,1.85l-44.47,-107.41z"/>
  <path id="svg_148" opacity="0.1" d="m313.41,75.43c-6.9,-1.16 -14,-2.29 -20.84,-0.8c-11.28,2.45 -19.88,11.6 -26.21,21.24s-11.25,20.34 -19.06,28.83c-5.23,5.69 -11.66,10.26 -16.32,16.42c-6.86,9.07 -9.25,20.64 -11.46,31.8c-3.24,16.38 -6.49,33 -5.06,49.67c0.72,8.36 2.62,16.59 3.07,25c0.91,16.89 -4.08,33.47 -9,49.65c-3.41,11.18 -6.93,22.57 -13.67,32.12c-4.47,6.33 -10.2,11.63 -15.66,17.12a9.61,9.61 0 0 0 -2.87,4.21c-1.18,4.78 4.59,8 9,10.16c13.49,6.73 22.34,19.86 32.83,30.68s25.5,20.11 39.93,15.77c4.28,-1.29 8.34,-3.74 12.8,-3.66c3,0.05 5.88,1.27 8.73,2.27a65.53,65.53 0 0 0 22.07,3.7a8.53,8.53 0 0 0 4.79,-1c2.23,-1.51 2.66,-4.55 2.88,-7.23c1.41,-16.82 2.81,-33.7 1.86,-50.55c-2.15,-38.16 -37.41,-82.3 -24,-118.11c5.83,-15.62 16.49,-29.06 22.39,-44.65c6.22,-16.43 28.15,-29.77 32.5,-46.8c0.49,-1.92 1.16,-4 2.84,-5c2.31,-1.42 5.32,-0.18 7.55,1.36c12.62,8.7 16.73,25.06 21.32,39.68a245.14,245.14 0 0 0 13.71,34.34c3,6 9.44,12.95 15.08,9.31c-2.84,25.28 -19.24,47.36 -22.95,72.52c-3.62,24.52 5.15,49.58 1.75,74.12a76,76 0 0 1 -20.45,42a101.68,101.68 0 0 0 37.83,0.34c12.69,-2.29 26.27,-8.3 30.85,-20.36c5,-13.27 -2.73,-27.51 -6.66,-41.15c-9.43,-32.79 -8.7,-71.57 -5.71,-105.56c3.08,-34.95 7.7,-65.55 -0.13,-99.75c-1.92,-8.39 -3.87,-16.85 -7.55,-24.63c-7.74,-16.35 -23.66,-28.05 -41.11,-32.17c-9,-2.12 -18.18,1.17 -26.56,-0.39c-4.22,-0.79 -8,-4.83 -12.1,-6.47c-5.26,-2.15 -10.9,-3.11 -16.41,-4.03z"/>
  <path id="svg_149" fill="#865a61" d="m429.59,387.66c-4.58,12.06 -18.16,18.07 -30.86,20.36a101.89,101.89 0 0 1 -37.83,-0.34a76.06,76.06 0 0 0 20.45,-42c3.41,-24.55 -5.36,-49.61 -1.75,-74.12c3.71,-25.17 20.11,-47.25 22.95,-72.53c-5.64,3.64 -12.13,-3.28 -15.09,-9.31a245.69,245.69 0 0 1 -13.71,-34.34c-4.59,-14.62 -8.7,-31 -21.32,-39.68c-2.23,-1.54 -5.24,-2.78 -7.55,-1.35c-1.69,1 -2.35,3.11 -2.84,5c-4.34,17 -26.28,30.36 -32.49,46.79c-5.91,15.59 -16.57,29 -22.4,44.65c-13.36,35.8 21.9,79.94 24,118.1c0.94,16.85 -0.46,33.74 -1.86,50.55c-0.23,2.69 -0.66,5.73 -2.89,7.24a8.51,8.51 0 0 1 -4.78,1a65.31,65.31 0 0 1 -22.01,-3.68c-2.85,-1 -5.71,-2.22 -8.73,-2.27c-4.46,-0.07 -8.52,2.38 -12.8,3.66c-14.43,4.34 -29.45,-4.95 -39.93,-15.77s-19.36,-23.93 -32.84,-30.62c-4.41,-2.2 -10.18,-5.38 -9,-10.17a9.68,9.68 0 0 1 2.87,-4.2c5.46,-5.49 11.2,-10.8 15.67,-17.12c6.74,-9.55 10.25,-20.94 13.67,-32.12c4.94,-16.18 9.93,-32.76 9,-49.65c-0.44,-8.37 -2.34,-16.6 -3.07,-25c-1.44,-16.64 1.82,-33.28 5.06,-49.66c2.2,-11.16 4.59,-22.73 11.46,-31.8c4.67,-6.16 11.09,-10.73 16.33,-16.42c7.82,-8.49 12.72,-19.19 19.06,-28.84s14.94,-18.79 26.22,-21.24c6.83,-1.49 13.94,-0.35 20.84,0.8c5.51,0.93 11.15,1.89 16.36,4c4.11,1.64 7.89,5.69 12.1,6.46c8.38,1.57 17.59,-1.72 26.56,0.4c17.45,4.11 33.37,15.81 41.11,32.16a73.61,73.61 0 0 1 3.82,10c1.48,4.8 2.61,9.71 3.73,14.61c0.24,1 0.47,2.08 0.69,3.11l0,0c6.85,32.56 2.43,56.27 -0.56,90.14s-3.72,79.25 5.7,112c3.93,13.68 11.7,27.93 6.66,41.2z"/>
  <path id="svg_150" opacity="0.05" d="m322.77,446.53s7.41,12 7.41,20.37c0,0 5.56,-20.37 10.19,-20.37"/>
  <path id="svg_237" opacity="0.1" d="m297.49,537.93a45.65,45.65 0 0 1 -3.39,3.82a2.78,2.78 0 1 1 3.39,-3.82z"/>
  <rect id="svg_239" fill="#54576b" ry="6.95" rx="6.95" height="16.67" width="88.9" y="613.21" x="216.27"/>
  <rect id="svg_241" opacity="0.1" ry="6.95" rx="6.95" height="16.67" width="88.9" y="613.21" x="216.27"/>
  <circle id="svg_247" opacity="0.2" r="1.39" cy="608.12" cx="436.2"/>
  <path id="svg_252" fill="#6c63ff" d="m801.83,579.91s-15.88,-5.38 -23.52,8.61a25.52,25.52 0 0 0 0.34,24.57c5,9.07 15.36,20.85 35,19.8c16.62,-0.89 22.15,-13.57 23.65,-25.37a26.06,26.06 0 0 0 -34.61,-27.9l-0.86,0.29z"/>
  <path id="svg_253" opacity="0.1" fill="#fff" d="m782.01,614.35a25.52,25.52 0 0 1 -0.34,-24.57c7.64,-14 23.52,-8.61 23.52,-8.61l0.81,-0.29a25.83,25.83 0 0 1 18.66,0.42a25.84,25.84 0 0 0 -22,-2.1l-0.81,0.29s-15.88,-5.38 -23.52,8.61a25.52,25.52 0 0 0 0.34,24.57c3.31,6 8.92,13.11 18,17a39.35,39.35 0 0 1 -14.66,-15.32z"/>
  <path id="svg_254" opacity="0.2" d="m793.63,586.64s5.89,4.63 20.18,0"/>
  <path id="svg_255" fill="#6c63ff" d="m792.37,553s10.09,27.33 9.25,34.48l8,-0.84s-13.51,-23.97 -10.1,-33.64l-7.15,0z"/>
  <path id="svg_256" opacity="0.2" d="m792.37,553s10.09,27.33 9.25,34.48l8,-0.84s-13.51,-23.97 -10.1,-33.64l-7.15,0z"/>
  <path id="svg_257" fill="#6c63ff" d="m833.56,555.28s-15.88,-8.12 -23,-1.41s-8.2,23.86 -8.2,23.86s25.91,3.57 31.2,-22.45z"/>
  <path id="svg_258" opacity="0.1" fill="#fff" d="m833.56,555.28s-15.88,-8.12 -23,-1.41s-8.2,23.86 -8.2,23.86s25.91,3.57 31.2,-22.45z"/>
  <path id="svg_259" stroke-miterlimit="10" stroke="#6c63ff" fill="none" d="m802.37,577.73s4.17,-19.91 31.19,-22.45"/>
 </g>
</svg>